<svg width="24" height="24" viewBox="0 0 24 24" fill="none" xmlns="http://www.w3.org/2000/svg">
<path d="M22.0107 15.5663L22.0099 15.5633L2.68092 3.78044C2.19418 3.91946 1.89305 4.40618 2.03205 4.89275L1.98397 4.90648C1.98397 4.90648 1.98397 4.90649 1.98397 4.90649C2.13052 5.41957 2.66731 5.71244 3.15649 5.59013L5.05553 5.11528L9.05149 19.8289C9.05154 19.829 9.05158 19.8292 9.05162 19.8294C9.10596 20.0454 9.32165 20.1488 9.52916 20.0971L9.5302 20.0968L10.5096 19.8297C11.0178 20.8703 12.2319 21.4433 13.4001 21.1165C14.5687 20.8124 15.3213 19.7232 15.2475 18.5568L21.1847 16.992C21.8181 16.8696 22.1771 16.1911 22.0107 15.5663L22.0107 15.5663ZM5.69517 4.57863L5.69525 4.57861L5.69435 4.57593C5.64251 4.42057 5.48703 4.28683 5.3225 4.28683H5.25299V4.28535L5.24109 4.28827L2.97008 4.84449L2.97007 4.84445L2.96825 4.84497C2.90005 4.86444 2.84719 4.85279 2.80848 4.82734C2.76862 4.80114 2.7395 4.75741 2.72618 4.70655C2.69936 4.60417 2.73871 4.49141 2.85649 4.45447L6.21414 3.60938L9.86253 17.0483C9.86257 17.0485 9.86261 17.0487 9.86265 17.0488C9.91699 17.2648 10.1327 17.3683 10.3402 17.3165L10.3406 17.3164L10.8069 17.1955C10.3549 17.7407 10.1769 18.4624 10.2718 19.1303L9.69165 19.2704L5.69517 4.57863ZM11.0945 19.2925L11.0944 19.2924C10.8015 18.3462 11.3419 17.3784 12.2876 17.1308L12.2881 17.1306C13.2795 16.8603 14.2476 17.5142 14.4274 18.4132L14.4274 18.4132L14.4276 18.4141C14.6297 19.3354 14.0464 20.1691 13.1883 20.4177C12.2867 20.6655 11.3643 20.1695 11.0945 19.2925ZM13.6321 16.4619C14.2558 16.2964 14.9235 16.1196 15.6116 15.9374C17.3833 15.4682 19.2902 14.9631 20.9298 14.5249L21.2644 15.7743L21.2645 15.7745C21.327 16.004 21.2024 16.2305 20.9755 16.2926L13.6321 16.4619ZM18.7252 14.3126L10.5024 16.4885L8.74419 10.0267L16.967 7.85081L18.7252 14.3126ZM7.65505 6.01763L11.915 4.88463L12.7928 8.14825L8.53271 9.28125L7.65505 6.01763Z" fill="#00A8C9" stroke="#00A8C9" stroke-width="0.1"/>
</svg>
